<svg xmlns="http://www.w3.org/2000/svg" viewBox="0 0 36.83 82.86"><defs><style>.cls-1{fill:#fff;}</style></defs><g id="Capa_2" data-name="Capa 2"><g id="Capa_1-2" data-name="Capa 1"><rect class="cls-1" width="9.21" height="40.97"/><rect class="cls-1" y="41.89" width="36.83" height="9.21"/><polygon class="cls-1" points="30.22 0 10.13 20.09 10.13 33.3 36.83 6.6 36.83 0 30.22 0"/><polygon class="cls-1" points="25.66 19.06 19.06 25.66 34.37 40.97 36.83 40.97 36.83 39.43 36.83 30.22 25.66 19.06"/><polygon class="cls-1" points="17.13 73.65 7.92 82.86 36.83 82.86 36.83 73.65 17.13 73.65"/><polygon class="cls-1" points="36.83 52.02 24.24 52.02 2.6 73.65 0 76.25 0 82.86 6.6 82.86 6.62 82.86 15.83 73.65 15.81 73.65 36.83 52.63 36.83 52.02"/></g></g></svg>