<svg id="Capa_1" data-name="Capa 1" xmlns="http://www.w3.org/2000/svg" viewBox="0 0 1008 612"><defs><style>.cls-1{fill:#b7144e;}.cls-2,.cls-3,.cls-8{fill:#fff;}.cls-3{font-size:88px;font-family:FuturaBT-Heavy, Futura Hv BT;font-weight:800;letter-spacing:-0.06em;}.cls-4{letter-spacing:0em;}.cls-5{letter-spacing:-0.03em;}.cls-6{letter-spacing:-0.06em;}.cls-7{letter-spacing:-0.02em;}.cls-8{font-size:54px;font-family:FuturaBT-Light, Futura Lt BT;font-weight:300;letter-spacing:0.1em;}.cls-9{letter-spacing:0.1em;}.cls-10{letter-spacing:0.12em;}</style></defs><rect class="cls-1" width="1008" height="612"/><rect class="cls-2" x="453.86" y="104.45" width="27.94" height="124.33"/><rect class="cls-2" x="453.86" y="231.57" width="111.76" height="27.94"/><polygon class="cls-2" points="545.58 104.44 484.59 165.43 484.59 205.51 565.62 124.48 565.62 104.44 545.58 104.44"/><polygon class="cls-2" points="531.75 162.29 511.71 182.33 558.15 228.78 565.62 228.78 565.62 224.1 565.62 196.16 531.75 162.29"/><polygon class="cls-2" points="505.85 327.96 477.91 355.9 565.62 355.9 565.62 327.96 505.85 327.96"/><polygon class="cls-2" points="565.62 262.31 527.42 262.31 461.76 327.96 453.86 335.86 453.86 355.9 473.9 355.9 473.95 355.9 501.89 327.96 501.84 327.96 565.62 264.18 565.62 262.31"/><text class="cls-3" transform="translate(195.61 458.31)">D<tspan class="cls-4" x="60.71" y="0">E</tspan><tspan class="cls-5" x="110.86" y="0">VE</tspan><tspan class="cls-6" x="215.55" y="0">L</tspan><tspan class="cls-7" x="253.62" y="0">OPMENT</tspan></text><text class="cls-8" transform="translate(367.03 504.86)">&amp;<tspan class="cls-9" x="39.86" y="0"> </tspan><tspan class="cls-10" x="61.03" y="0">DESIGN</tspan></text></svg>